<svg xmlns="http://www.w3.org/2000/svg" version="1.1" xmlns:xlink="http://www.w3.org/1999/xlink" xmlns:svgjs="http://svgjs.dev/svgjs" width="1000" height="1125" viewBox="0 0 1000 1125"><g transform="matrix(1,0,0,1,0,0)"><svg viewBox="0 0 320 360" data-background-color="#ffffff" preserveAspectRatio="xMidYMid meet" height="1125" width="1000" xmlns="http://www.w3.org/2000/svg" xmlns:xlink="http://www.w3.org/1999/xlink"><g id="tight-bounds" transform="matrix(1,0,0,1,0,0)"><svg viewBox="0 0 320 360" height="360" width="320"><g><svg></svg></g><g><svg viewBox="0 0 320 360" height="360" width="320"><g><path xmlns="http://www.w3.org/2000/svg" d="M297.491 100.645c-12.426-21.51-112.674-79.355-137.491-79.355-24.817 0-125.028 57.845-137.491 79.355-11.591 20.02-11.591 138.726 0 158.746 12.463 21.474 112.674 79.319 137.491 79.319 24.817 0 125.064-57.845 137.491-79.355 11.591-20.02 11.591-138.69 0-158.71zM309.481 93.705c-14.461-24.998-119.469-86.295-149.481-86.295-30.012 0-135.02 61.297-149.481 86.295-14.025 24.199-14.025 148.391 0 172.59 14.461 24.998 119.469 86.295 149.481 86.295 30.012 0 135.02-61.297 149.481-86.259 14.025-24.235 14.025-148.427 0-172.626zM300.906 261.353c-12.753 22.055-115.472 81.317-140.906 81.318-25.434 0-128.153-59.298-140.906-81.354-11.881-20.529-11.881-142.178 0-162.707 12.753-22.019 115.472-81.281 140.906-81.281 25.434 0 128.153 59.298 140.906 81.318 11.881 20.529 11.881 142.178 0 162.706z" fill="#27292a" fill-rule="nonzero" stroke="none" stroke-width="1" stroke-linecap="butt" stroke-linejoin="miter" stroke-miterlimit="10" stroke-dasharray="" stroke-dashoffset="0" font-family="none" font-weight="none" font-size="none" text-anchor="none" style="mix-blend-mode: normal" data-fill-palette-color="tertiary"></path></g><g transform="matrix(1,0,0,1,70,90)"><svg viewBox="0 0 180 180" height="180" width="180"><g><svg viewBox="0 0 180 180" height="180" width="180"><g><svg viewBox="0 0 180 180" height="180" width="180"><g id="textblocktransform"><svg viewBox="0 0 180 180" height="180" width="180" id="textblock"><g><svg viewBox="0 0 180 180" height="180" width="180"><g transform="matrix(1,0,0,1,36.966991411008934,36.966991411008934)"><svg viewBox="0 0 106.06601717798213 106.06601717798213" height="106.06601717798213" width="106.06601717798213"><g><circle r="53" cx="53.033008588991066" cy="53.033008588991066" fill="#fdc500" data-fill-palette-color="accent"></circle><svg version="1.1" xmlns="http://www.w3.org/2000/svg" xmlns:xlink="http://www.w3.org/1999/xlink" x="15.90990257669732" y="15.90990257669732" viewBox="0 0 100 83" enable-background="new 0 0 100 83" xml:space="preserve" height="74.24621202458749" width="74.24621202458749" class="icon-o-0" data-fill-palette-color="quaternary" id="o-0"><path d="M99.981 2.312C99.884 1.021 98.816 0 97.5 0h-95C1.184 0 0.116 1.021 0.019 2.312L0 66.5C0 67.881 1.119 69 2.5 69h95c1.381 0 2.5-1.119 2.5-2.5L99.981 2.312zM96 57H4V4h92V57z" fill="#ffffff" data-fill-palette-color="quaternary"></path><path d="M66 81c-4-1-5-4-5-8v-1H50 39v1c0 4-1 7-5 8-0.97 0.242-1 2 0 2h16 16C67 83 66.97 81.242 66 81z" fill="#ffffff" data-fill-palette-color="quaternary"></path></svg></g></svg></g><g><path d="M8.059 122.812V122.812L6.018 117.239 23.1 110.983 25.141 116.555C26.076 119.107 26.053 121.483 25.074 123.684 24.098 125.876 22.409 127.412 20.007 128.292V128.292C17.394 129.249 14.991 129.24 12.798 128.265 10.612 127.287 9.032 125.469 8.059 122.812ZM22.415 117.437V117.437L21.608 115.234 9.875 119.532 10.702 121.791C11.359 123.583 12.411 124.74 13.858 125.261 15.305 125.783 16.956 125.704 18.811 125.025V125.025C20.453 124.423 21.62 123.435 22.309 122.06 23.007 120.69 23.042 119.149 22.415 117.437ZM30.962 129.402L15.033 138.188 13.391 135.211 29.32 126.425ZM28.941 152.99L28.72 153.192C26.763 152.646 25.007 151.404 23.453 149.464V149.464C21.654 147.22 20.853 144.881 21.051 142.446 21.248 140.021 22.471 137.907 24.72 136.104V136.104C26.908 134.351 29.246 133.645 31.736 133.985 34.224 134.335 36.341 135.598 38.086 137.775V137.775C39.379 139.389 40.186 141.01 40.506 142.639V142.639L37.783 144.821C37.527 142.912 36.818 141.233 35.658 139.785V139.785C34.522 138.368 33.164 137.579 31.584 137.419 29.999 137.254 28.47 137.762 26.996 138.943V138.943C25.491 140.149 24.646 141.522 24.462 143.063 24.283 144.608 24.79 146.125 25.983 147.615V147.615C26.568 148.344 27.262 148.951 28.067 149.436V149.436L31.418 146.75 29.323 144.136 31.596 142.314 35.779 147.535 28.953 153.006ZM45.858 146.308L33.592 159.742 31.081 157.449 43.348 144.015ZM57.301 153.922L55.741 156.263 51.902 153.705 43.374 166.502 40.52 164.599 49.049 151.803 45.21 149.245 46.771 146.904ZM58.186 165.4V165.4L57.659 166.033 62.405 167.977 62.49 167.142C62.658 165.105 62.814 163.404 62.959 162.038 63.105 160.665 63.2 159.805 63.242 159.457V159.457L63.348 158.91C62.859 159.684 61.139 161.847 58.186 165.4ZM55.785 168.273L53.016 171.597 49.723 170.248 62.313 155.746 66.388 157.416 65.177 176.579 61.783 175.188 62.151 170.881ZM79.85 176.572L79.246 179.533 68.961 177.436 72.595 159.611 75.926 160.29 72.896 175.154ZM96.424 175.596L96.366 178.995C95.234 179.698 93.66 180.032 91.646 179.998V179.998C88.949 179.951 86.737 179.061 85.011 177.328 83.29 175.601 82.455 173.333 82.503 170.524V170.524C82.55 167.774 83.457 165.546 85.223 163.84 86.989 162.134 89.237 161.304 91.967 161.351V161.351C93.968 161.386 95.52 161.744 96.622 162.426V162.426L96.564 165.745C95.213 164.933 93.709 164.513 92.052 164.485 90.396 164.456 89.005 164.992 87.879 166.093 86.753 167.2 86.173 168.698 86.141 170.587 86.108 172.475 86.636 173.986 87.723 175.118 88.81 176.257 90.245 176.842 92.028 176.872V176.872C93.737 176.902 95.203 176.476 96.424 175.596ZM103.531 163.031V163.031L101.351 163.435 102.434 169.27 104.662 168.857C105.692 168.666 106.412 168.263 106.824 167.647 107.242 167.031 107.364 166.253 107.19 165.315V165.315C107.02 164.396 106.618 163.739 105.985 163.344 105.353 162.949 104.535 162.845 103.531 163.031ZM102.945 172.027L104.156 178.556 100.813 179.176 97.496 161.289 103.018 160.265C105.051 159.888 106.743 160.107 108.094 160.921 109.443 161.729 110.277 162.99 110.595 164.703V164.703C110.812 165.984 110.702 167.117 110.265 168.101 109.822 169.093 109.118 169.898 108.154 170.515V170.515L114.057 176.719 110.05 177.463 104.773 171.688ZM126.611 168.913L127.604 171.514 117.472 175.382 110.983 158.387 121.022 154.554 122.015 157.154 115.18 159.764 116.942 164.38 123.016 162.061 123.998 164.633 117.924 166.952 119.683 171.558ZM131.64 159.907V159.907L131.861 160.701 136.157 157.899 135.518 157.355C133.937 156.06 132.626 154.964 131.584 154.07 130.538 153.169 129.884 152.603 129.621 152.37V152.37L129.231 151.972C129.59 152.814 130.393 155.459 131.64 159.907ZM132.64 163.516L133.802 167.683 130.821 169.626 126.039 151.027 129.728 148.622 144.811 160.505 141.738 162.508 138.402 159.758ZM143.101 136.79L145.077 138.792 141.793 142.032 152.595 152.978 150.154 155.387 139.352 144.441 136.069 147.681 134.093 145.678ZM159.743 127.79V127.79C162.073 129.348 163.516 131.25 164.071 133.495 164.626 135.74 164.18 137.945 162.731 140.11 161.28 142.281 159.408 143.54 157.118 143.89 154.827 144.239 152.516 143.634 150.186 142.076V142.076C147.834 140.502 146.383 138.595 145.834 136.353 145.275 134.114 145.721 131.909 147.173 129.738V129.738C148.643 127.54 150.514 126.269 152.787 125.923 155.061 125.587 157.38 126.209 159.743 127.79ZM152.209 139.051V139.051C153.79 140.109 155.297 140.575 156.729 140.448 158.155 140.318 159.289 139.625 160.129 138.369V138.369C160.98 137.097 161.191 135.786 160.761 134.439 160.331 133.091 159.317 131.882 157.72 130.814 156.117 129.741 154.608 129.262 153.192 129.376 151.777 129.489 150.638 130.19 149.776 131.479V131.479C148.924 132.752 148.717 134.064 149.152 135.416 149.587 136.767 150.606 137.979 152.209 139.051ZM156.803 117.903V117.903L156.001 119.97 161.532 122.119 162.353 120.006C162.732 119.03 162.768 118.205 162.461 117.531 162.157 116.851 161.56 116.338 160.67 115.993V115.993C159.799 115.654 159.029 115.65 158.361 115.981 157.692 116.311 157.173 116.952 156.803 117.903ZM164.146 123.134L170.335 125.539 169.104 128.708 152.147 122.12 154.181 116.884C154.93 114.957 156.006 113.633 157.409 112.913 158.806 112.19 160.317 112.144 161.942 112.775V112.775C163.145 113.264 164.05 113.954 164.657 114.844 165.268 115.742 165.582 116.764 165.6 117.908V117.908L173.982 116.152 172.506 119.951 164.819 121.401Z" fill="#ffffff" data-fill-palette-color="quaternary"></path><path d="M22.441 64.844V64.844L20.325 70.283 3.649 63.795 5.764 58.357C6.735 55.861 8.294 54.121 10.441 53.136 12.596 52.147 14.844 52.108 17.185 53.018V53.018C19.742 54.013 21.509 55.586 22.486 57.737 23.465 59.881 23.45 62.25 22.441 64.844ZM8.35 59.469V59.469L7.51 61.628 18.971 66.086 19.828 63.881C20.508 62.133 20.485 60.595 19.757 59.267 19.029 57.939 17.758 56.921 15.942 56.215V56.215C14.342 55.592 12.839 55.562 11.433 56.125 10.027 56.687 8.999 57.802 8.35 59.469ZM13.187 42.772L28.703 51.685 27.034 54.59 11.518 45.677ZM38.473 36.881L38.708 37.049C38.574 39.044 37.728 40.984 36.171 42.87V42.87C34.37 45.052 32.28 46.292 29.903 46.589 27.526 46.887 25.244 46.133 23.057 44.327V44.327C20.931 42.572 19.783 40.459 19.613 37.99 19.448 35.525 20.239 33.235 21.986 31.119V31.119C23.281 29.55 24.685 28.448 26.196 27.815V27.815L28.834 29.992C27.044 30.629 25.57 31.65 24.409 33.055V33.055C23.274 34.43 22.788 35.898 22.952 37.459 23.11 39.017 23.904 40.386 25.335 41.567V41.567C26.797 42.774 28.288 43.31 29.81 43.174 31.337 43.042 32.697 42.253 33.891 40.807V40.807C34.474 40.101 34.918 39.313 35.226 38.441V38.441L31.968 35.751 29.873 38.288 27.658 36.459 31.848 31.384 38.486 36.865ZM32.613 20.751L44.518 34.11 42.017 36.339 30.112 22.98ZM46.613 11.325L48.123 13.639 44.319 16.122 52.589 28.792 49.767 30.634 41.497 17.964 37.693 20.447 36.182 18.133ZM59.167 17.163V17.163L59.232 17.962 63.908 16.082 63.389 15.433C62.118 13.887 61.063 12.579 60.225 11.509 59.384 10.447 58.86 9.776 58.654 9.494V9.494L58.356 9.046C58.54 9.929 58.81 12.635 59.167 17.163ZM59.431 20.829L59.768 25.076 56.521 26.382 55.461 7.521 59.473 5.908 71.766 20.25 68.419 21.596 65.712 18.303ZM82.633 15.192L83.218 18.107 73.091 20.137 69.573 2.592 72.848 1.936 75.781 16.566ZM97.53 13.859L97.587 17.209C96.499 17.93 94.964 18.307 92.983 18.341V18.341C90.333 18.386 88.128 17.588 86.371 15.947 84.62 14.307 83.72 12.105 83.674 9.342V9.342C83.628 6.632 84.445 4.411 86.126 2.679 87.8 0.94 89.982 0.048 92.672 0.003V0.003C94.64-0.031 96.176 0.271 97.281 0.909V0.909L97.336 4.169C95.978 3.416 94.487 3.054 92.863 3.081 91.233 3.109 89.884 3.685 88.816 4.81 87.742 5.936 87.22 7.426 87.252 9.281 87.283 11.137 87.855 12.605 88.967 13.686 90.072 14.768 91.5 15.294 93.249 15.264V15.264C94.932 15.236 96.359 14.767 97.53 13.859ZM107.473 4.603V4.603L105.331 4.212 104.284 9.953 106.484 10.354C107.495 10.539 108.298 10.419 108.894 9.995 109.495 9.58 109.88 8.909 110.049 7.983V7.983C110.215 7.077 110.074 6.334 109.627 5.754 109.188 5.168 108.47 4.785 107.473 4.603ZM103.788 12.672L102.616 19.097 99.33 18.497 102.541 0.894 107.969 1.884C109.977 2.25 111.456 3.042 112.406 4.26 113.362 5.478 113.687 6.932 113.379 8.621V8.621C113.137 9.87 112.642 10.871 111.891 11.623 111.14 12.382 110.214 12.877 109.115 13.108V13.108L112.366 20.875 108.415 20.155 105.597 13.002ZM124.358 22.716L123.398 25.276 113.402 21.526 119.686 4.772 129.58 8.483 128.62 11.043 121.881 8.515 120.174 13.067 126.168 15.315 125.218 17.847 119.224 15.599 117.517 20.15ZM133.074 22.63V22.63L132.461 23.147 136.708 25.86 136.935 25.061C137.454 23.128 137.906 21.51 138.291 20.206 138.666 18.905 138.908 18.088 139.018 17.757V17.757L139.209 17.254C138.597 17.917 136.552 19.709 133.074 22.63ZM130.243 24.975L126.982 27.716 124.034 25.833 138.768 14.012 142.412 16.339 137.882 34.678 134.841 32.736 135.949 28.619ZM159.199 30.576L157.283 32.567 154.009 29.418 143.519 40.321 141.09 37.984 151.58 27.081 148.307 23.931 150.223 21.94ZM163.983 52.705V52.705C161.716 54.274 159.455 54.908 157.2 54.608 154.944 54.307 153.087 53.102 151.627 50.994 150.167 48.885 149.69 46.717 150.195 44.489 150.704 42.267 152.091 40.371 154.358 38.802V38.802C156.647 37.217 158.916 36.577 161.166 36.882 163.421 37.182 165.279 38.387 166.739 40.496V40.496C168.221 42.637 168.708 44.807 168.199 47.005 167.688 49.213 166.282 51.113 163.983 52.705ZM156.395 41.744V41.744C154.853 42.812 153.885 44.022 153.492 45.374 153.089 46.725 153.312 48.014 154.161 49.24V49.24C155.017 50.476 156.139 51.142 157.527 51.238 158.916 51.324 160.387 50.829 161.94 49.754 163.499 48.675 164.485 47.468 164.899 46.134 165.304 44.798 165.073 43.503 164.205 42.25V42.25C163.349 41.013 162.224 40.349 160.831 40.257 159.432 40.17 157.954 40.665 156.395 41.744ZM173.093 58.677V58.677L172.266 56.663 166.869 58.882 167.719 60.951C168.11 61.901 168.644 62.512 169.323 62.785 169.997 63.067 170.77 63.029 171.64 62.671V62.671C172.492 62.32 173.042 61.801 173.289 61.112 173.544 60.426 173.479 59.614 173.094 58.677ZM164.313 59.933L158.272 62.417 157.002 59.327 173.551 52.523 175.649 57.626C176.426 59.514 176.558 61.186 176.046 62.643 175.537 64.107 174.489 65.164 172.902 65.817V65.817C171.72 66.289 170.61 66.412 169.571 66.187 168.527 65.964 167.61 65.453 166.822 64.652V64.652L162.041 71.583 160.514 67.869 165.012 61.634Z" fill="#ffffff" data-fill-palette-color="quaternary"></path><path d="M8.202 92.175c0-1.153 0.934-2.087 2.087-2.087 1.153 0 2.087 0.934 2.087 2.087 0 1.153-0.934 2.087-2.087 2.087-1.153 0-2.087-0.934-2.087-2.087zM169.247 92.175c0-1.153 0.934-2.087 2.087-2.087 1.153 0 2.087 0.934 2.087 2.087 0 1.153-0.934 2.087-2.087 2.087-1.153 0-2.087-0.934-2.087-2.087z" fill="#ffffff" data-fill-palette-color="quaternary"></path></g></svg></g></svg></g></svg></g></svg></g></svg></g></svg></g><defs></defs></svg><rect width="320" height="360" fill="none" stroke="none" visibility="hidden"></rect></g></svg></g></svg>